<svg viewBox="0 0 744 419" fill="none" xmlns="http://www.w3.org/2000/svg">
<g clip-path="url(#clip0)">
<path d="M51.0586 2.55371L97.4197 133.359L143.475 2.55371H192.261V182.928H154.988V133.614L158.716 48.5219L110.031 182.928H84.5019L35.9963 48.5219L39.698 133.512V182.928H2.55292V2.55371H51.0586Z" stroke="#FEDA84" stroke-width="2" stroke-miterlimit="10"/>
<path d="M61.2703 10.2151L107.631 141.02L153.686 10.2151H202.473V190.589H165.2V141.275L168.927 56.1833L120.243 190.589H94.7137L46.208 56.1833L49.9098 141.173V190.589H12.7646V10.2151H61.2703Z" fill="#FEDA84"/>
<path d="M284.013 185.405C264.39 185.405 248.4 179.37 236.044 167.299C223.688 155.228 217.518 139.164 217.535 119.109V115.661C217.322 103.186 219.986 90.8289 225.321 79.5505C230.128 69.3796 237.816 60.8456 247.43 55.0086C257.306 49.1907 268.596 46.2125 280.056 46.4023C298.386 46.4023 312.853 52.1824 323.456 63.7426C334.059 75.3027 339.318 91.698 339.233 112.929V127.536H253.812C254.613 135.602 258.336 143.096 264.279 148.605C270.359 153.986 278.275 156.821 286.388 156.522C300.173 156.522 310.947 151.525 318.708 141.531L336.272 161.246C330.728 169.034 323.212 175.204 314.495 179.123C304.916 183.422 294.511 185.567 284.013 185.405ZM279.929 75.2601C276.701 75.1468 273.487 75.7341 270.508 76.9817C267.529 78.2293 264.855 80.1076 262.671 82.4874C257.801 88.348 254.835 95.5558 254.17 103.148H303.952V100.287C303.85 92.3194 301.705 86.1308 297.518 81.7212C295.199 79.4764 292.436 77.7418 289.407 76.629C286.377 75.5163 283.149 75.05 279.929 75.2601V75.2601Z" stroke="#FEDA84" stroke-width="2" stroke-miterlimit="10"/>
<path d="M294.225 193.066C274.602 193.066 258.612 187.031 246.255 174.96C233.899 162.889 227.73 146.826 227.747 126.77V123.322C227.534 110.847 230.198 98.4903 235.533 87.2119C240.34 77.041 248.027 68.507 257.642 62.67C267.518 56.852 278.808 53.8739 290.268 54.0637C308.598 54.0637 323.065 59.8438 333.668 71.4039C344.271 82.9641 349.53 99.3594 349.445 120.59V135.198H264.024C264.825 143.263 268.548 150.757 274.491 156.266C280.57 161.648 288.487 164.482 296.599 164.183C310.385 164.183 321.158 159.186 328.919 149.192L346.483 168.908C340.94 176.695 333.424 182.865 324.707 186.784C315.128 191.083 304.723 193.228 294.225 193.066ZM290.14 82.9215C286.913 82.8082 283.699 83.3955 280.72 84.6431C277.74 85.8907 275.067 87.769 272.883 90.1487C268.013 96.0094 265.047 103.217 264.381 110.809H314.163V107.949C314.061 99.9808 311.917 93.7921 307.73 89.3826C305.411 87.1377 302.648 85.4032 299.619 84.2904C296.589 83.1777 293.361 82.7114 290.14 82.9215Z" fill="#FEDA84"/>
<path d="M39.698 408.861H2.55292V228.513H39.698V408.861Z" stroke="#FEDA84" stroke-width="2" stroke-miterlimit="10"/>
<path d="M49.9098 416.523H12.7646V236.174H49.9098V416.523Z" fill="#FEDA84"/>
<path d="M104.67 274.839L105.768 290.315C110.325 284.507 116.191 279.86 122.886 276.753C129.581 273.646 136.916 272.168 144.292 272.438C158.486 272.438 169.055 276.609 175.999 284.952C182.943 293.294 186.491 305.757 186.645 322.339V408.862H150.904V323.131C150.904 315.555 149.253 310.047 145.951 306.608C142.649 303.169 137.16 301.466 129.485 301.5C124.891 301.297 120.332 302.386 116.325 304.643C112.318 306.9 109.023 310.235 106.815 314.269V408.759H71.0735V274.839H104.67Z" stroke="#FEDA84" stroke-width="2" stroke-miterlimit="10"/>
<path d="M114.882 282.5L115.98 297.976C120.537 292.168 126.402 287.521 133.098 284.415C139.793 281.308 147.128 279.829 154.503 280.1C168.698 280.1 179.267 284.271 186.211 292.613C193.155 300.955 196.703 313.418 196.856 330.001V416.523H161.115V330.792C161.115 323.216 159.464 317.708 156.163 314.269C152.861 310.83 147.372 309.128 139.696 309.162C135.102 308.959 130.544 310.048 126.537 312.304C122.53 314.561 119.235 317.896 117.026 321.931V416.421H81.2853V282.5H114.882Z" fill="#FEDA84"/>
<path d="M208.242 340.854C208.242 319.964 212.923 303.322 222.284 290.928C231.644 278.533 244.46 272.344 260.731 272.361C266.867 272.226 272.955 273.468 278.548 275.996C284.141 278.524 289.097 282.274 293.051 286.969V218.604H328.97V408.861H296.65L294.914 394.611C290.899 399.938 285.676 404.232 279.674 407.141C273.673 410.049 267.066 411.488 260.399 411.339C253.035 411.54 245.732 409.949 239.119 406.701C232.506 403.454 226.781 398.647 222.437 392.696C212.974 380.268 208.242 362.987 208.242 340.854ZM243.983 343.408C243.983 356.007 246.17 365.643 250.544 372.317C252.544 375.536 255.365 378.165 258.716 379.934C262.068 381.702 265.829 382.546 269.615 382.379C280.678 382.379 288.472 377.705 293 368.358V315.495C288.558 306.148 280.839 301.475 269.845 301.475C252.655 301.475 244.052 315.486 244.034 343.51L243.983 343.408Z" stroke="#FEDA84" stroke-width="2" stroke-miterlimit="10"/>
<path d="M218.454 348.515C218.454 327.625 223.134 310.983 232.495 298.589C241.856 286.195 254.672 280.006 270.942 280.023C277.078 279.888 283.166 281.13 288.76 283.658C294.353 286.185 299.308 289.935 303.262 294.631V226.266H339.182V416.523H306.862L305.126 402.273C301.111 407.599 295.887 411.894 289.886 414.802C283.884 417.711 277.277 419.15 270.61 419C263.246 419.201 255.944 417.61 249.331 414.362C242.718 411.115 236.993 406.309 232.648 400.357C223.186 387.929 218.454 370.648 218.454 348.515ZM254.195 351.069C254.195 363.668 256.382 373.304 260.756 379.978C262.756 383.198 265.576 385.827 268.928 387.595C272.279 389.363 276.041 390.207 279.826 390.04C290.889 390.04 298.684 385.367 303.211 376.02V323.156C298.769 313.809 291.051 309.136 280.056 309.136C262.867 309.136 254.263 323.148 254.246 351.171L254.195 351.069Z" fill="#FEDA84"/>
<path d="M356.465 240.056C356.382 237.592 356.819 235.138 357.747 232.855C358.675 230.571 360.074 228.508 361.852 226.802C365.988 223.431 371.159 221.591 376.493 221.591C381.828 221.591 386.999 223.431 391.134 226.802C394.648 230.338 396.621 235.121 396.621 240.107C396.621 245.093 394.648 249.876 391.134 253.412C387.029 256.773 381.887 258.609 376.583 258.609C371.278 258.609 366.136 256.773 362.031 253.412C360.206 251.711 358.765 249.639 357.805 247.336C356.845 245.032 356.389 242.55 356.465 240.056V240.056ZM394.479 408.759H358.559V274.839H394.479V408.759Z" stroke="#FEDA84" stroke-width="2" stroke-miterlimit="10"/>
<path d="M366.677 247.717C366.594 245.253 367.03 242.8 367.958 240.516C368.887 238.232 370.285 236.17 372.064 234.463C376.199 231.093 381.371 229.252 386.705 229.252C392.039 229.252 397.21 231.093 401.346 234.463C404.86 237.999 406.832 242.782 406.832 247.768C406.832 252.754 404.86 257.538 401.346 261.074C397.241 264.435 392.099 266.271 386.794 266.271C381.489 266.271 376.348 264.435 372.243 261.074C370.417 259.372 368.977 257.301 368.017 254.997C367.057 252.694 366.6 250.212 366.677 247.717ZM404.69 416.421H368.771V282.5H404.69V416.421Z" fill="#FEDA84"/>
<path d="M479.67 382.481C485.534 382.744 491.284 380.793 495.779 377.016C497.831 375.208 499.468 372.979 500.579 370.48C501.689 367.98 502.246 365.27 502.212 362.536H535.783C535.748 371.393 533.169 380.053 528.354 387.486C523.437 395.089 516.508 401.18 508.339 405.082C499.591 409.32 489.976 411.462 480.257 411.338C461.093 411.338 445.98 405.252 434.917 393.079C423.854 380.906 418.323 364.076 418.323 342.59V340.241C418.323 319.589 423.812 303.109 434.789 290.8C445.767 278.49 460.821 272.344 479.951 272.361C496.698 272.361 510.135 277.128 520.261 286.663C530.388 296.197 535.494 308.898 535.579 324.765H502.212C502.324 318.481 500.021 312.393 495.779 307.757C493.364 305.474 490.501 303.72 487.372 302.604C484.242 301.488 480.915 301.036 477.602 301.276C474.288 301.516 471.061 302.444 468.125 303.999C465.189 305.554 462.609 307.704 460.548 310.311C456.276 316.389 454.149 326.255 454.166 339.909V343.612C454.166 357.437 456.276 367.362 460.497 373.389C464.633 379.467 471.092 382.481 479.67 382.481Z" stroke="#FEDA84" stroke-width="2" stroke-miterlimit="10"/>
<path d="M489.881 390.142C495.746 390.405 501.496 388.455 505.99 384.677C508.043 382.87 509.68 380.64 510.79 378.141C511.901 375.642 512.458 372.932 512.424 370.197H545.995C545.959 379.054 543.381 387.714 538.566 395.147C533.648 402.751 526.72 408.841 518.551 412.743C509.803 416.981 500.188 419.124 490.469 419C471.305 419 456.191 412.913 445.129 400.74C434.066 388.567 428.535 371.738 428.535 350.252V347.902C428.535 327.234 434.023 310.753 445.001 298.461C455.979 286.169 471.032 280.023 490.162 280.023C506.909 280.023 520.346 284.79 530.473 294.324C540.6 303.858 545.705 316.559 545.791 332.426H512.424C512.536 326.142 510.233 320.054 505.99 315.418C503.576 313.136 500.713 311.381 497.583 310.265C494.454 309.15 491.127 308.697 487.813 308.938C484.5 309.178 481.272 310.105 478.337 311.66C475.401 313.216 472.82 315.365 470.76 317.972C466.488 324.05 464.361 333.916 464.378 347.57V351.273C464.378 365.098 466.488 375.024 470.709 381.051C474.845 387.129 481.304 390.142 489.881 390.142Z" fill="#FEDA84"/>
<path d="M633.841 408.861C632.03 405.072 630.824 401.022 630.267 396.859C626.033 401.603 620.809 405.36 614.964 407.862C609.118 410.364 602.795 411.551 596.441 411.339C584.523 411.761 572.881 407.696 563.814 399.949C559.659 396.418 556.343 392.005 554.109 387.03C551.874 382.056 550.777 376.645 550.896 371.193C550.896 356.994 556.156 346.098 566.674 338.505C577.192 330.911 592.399 327.038 612.294 326.885H628.761V319.223C629.029 313.857 627.341 308.576 624.012 304.36C620.821 300.632 615.817 298.793 608.95 298.793C603.859 298.487 598.828 300.029 594.781 303.135C593.082 304.594 591.739 306.423 590.854 308.481C589.97 310.539 589.566 312.772 589.675 315.01H553.986C553.993 307.24 556.509 299.68 561.159 293.456C566.417 286.501 573.481 281.122 581.583 277.903C590.917 274.039 600.943 272.127 611.043 272.285C627.552 272.285 640.657 276.431 650.359 284.722C660.06 293.013 664.91 304.675 664.91 319.709V377.961C664.91 390.678 666.689 400.306 670.246 406.844V408.938L633.841 408.861ZM604.253 383.962C609.344 384.008 614.369 382.798 618.881 380.438C623.052 378.346 626.496 375.044 628.761 370.963V347.979H615.409C597.487 347.979 587.948 354.168 586.791 366.545V368.665C586.737 370.732 587.132 372.786 587.947 374.686C588.762 376.586 589.979 378.287 591.514 379.672C595.056 382.678 599.614 384.213 604.253 383.962Z" stroke="#FEDA84" stroke-width="2" stroke-miterlimit="10"/>
<path d="M644.053 416.523C642.242 412.733 641.036 408.683 640.479 404.52C636.245 409.265 631.021 413.021 625.175 415.523C619.33 418.025 613.007 419.212 606.652 419C594.735 419.422 583.093 415.358 574.026 407.61C569.871 404.079 566.555 399.666 564.321 394.691C562.086 389.717 560.988 384.307 561.108 378.854C561.108 364.655 566.367 353.759 576.885 346.166C587.403 338.572 602.61 334.699 622.506 334.546H638.973V326.885C639.24 321.519 637.553 316.238 634.224 312.022C631.033 308.293 626.029 306.454 619.162 306.454C614.07 306.148 609.04 307.69 604.993 310.796C603.294 312.256 601.951 314.084 601.066 316.142C600.181 318.2 599.778 320.433 599.887 322.671H564.197C564.205 314.901 566.721 307.341 571.371 301.117C576.629 294.162 583.693 288.783 591.794 285.564C601.129 281.701 611.155 279.789 621.255 279.946C637.764 279.946 650.869 284.092 660.57 292.383C670.271 300.674 675.122 312.337 675.122 327.37V385.622C675.122 398.34 676.901 407.967 680.458 414.505V416.599L644.053 416.523ZM614.464 391.623C619.556 391.669 624.58 390.459 629.093 388.099C633.264 386.007 636.708 382.705 638.973 378.624V355.64H625.621C607.699 355.64 598.16 361.829 597.002 374.206V376.326C596.949 378.393 597.343 380.447 598.159 382.347C598.974 384.247 600.191 385.948 601.725 387.333C605.268 390.339 609.826 391.874 614.464 391.623Z" fill="#FEDA84"/>
<path d="M713.722 373.057C716.381 372.937 719.036 373.348 721.534 374.264C724.032 375.18 726.323 376.584 728.274 378.395C731.808 382.024 733.785 386.889 733.785 391.955C733.785 397.021 731.808 401.887 728.274 405.516C724.232 408.961 719.096 410.853 713.786 410.853C708.476 410.853 703.34 408.961 699.298 405.516C697.481 403.779 696.051 401.678 695.1 399.35C694.15 397.022 693.702 394.52 693.784 392.006C693.714 389.487 694.167 386.981 695.117 384.646C696.066 382.312 697.49 380.2 699.298 378.446C701.221 376.63 703.488 375.218 705.966 374.292C708.443 373.367 711.08 372.947 713.722 373.057ZM728.58 353.495H698.864L694.652 228.513H732.691L728.58 353.495Z" stroke="#FEDA84" stroke-width="2" stroke-miterlimit="10"/>
<path d="M723.934 380.718C726.592 380.599 729.248 381.009 731.746 381.925C734.244 382.841 736.535 384.245 738.486 386.056C742.019 389.685 743.997 394.55 743.997 399.616C743.997 404.682 742.019 409.548 738.486 413.177C734.444 416.622 729.308 418.514 723.998 418.514C718.688 418.514 713.552 416.622 709.51 413.177C707.693 411.44 706.262 409.339 705.312 407.011C704.362 404.683 703.913 402.181 703.996 399.668C703.925 397.148 704.379 394.642 705.328 392.308C706.278 389.973 707.702 387.862 709.51 386.107C711.433 384.291 713.7 382.879 716.177 381.954C718.655 381.028 721.292 380.608 723.934 380.718ZM738.792 361.156H709.076L704.864 236.174H742.902L738.792 361.156Z" fill="#FEDA84"/>
</g>
<defs>
<clipPath id="clip0">
<rect width="744" height="419" />
</clipPath>
</defs>
</svg>
