<svg width="189" height="35" viewBox="0 0 189 35" fill="none" xmlns="http://www.w3.org/2000/svg">
<path d="M10.5464 2.00781L17.6875 24.2661L24.8066 2.00781H34.958V34H27.2236V26.5293L27.9707 11.2363L20.2363 34H15.1387L7.38232 11.2144L8.12939 26.5293V34H0.416992V2.00781H10.5464ZM51.042 34.4395C47.3945 34.4395 44.4429 33.3555 42.187 31.1875C39.9312 29.0049 38.8032 26.1704 38.8032 22.6841V22.0688C38.8032 19.6372 39.25 17.4912 40.1436 15.6309C41.0518 13.7705 42.3701 12.335 44.0986 11.3242C45.8271 10.2988 47.8779 9.78613 50.251 9.78613C53.5908 9.78613 56.2275 10.8262 58.1611 12.9062C60.0947 14.9717 61.0615 17.8574 61.0615 21.5635V24.4419H46.3398C46.6035 25.7749 47.1821 26.8223 48.0757 27.584C48.9692 28.3457 50.1265 28.7266 51.5474 28.7266C53.8911 28.7266 55.7222 27.9062 57.0405 26.2656L60.4243 30.2646C59.5015 31.5391 58.1904 32.5571 56.4912 33.3188C54.8066 34.0659 52.9902 34.4395 51.042 34.4395ZM50.207 15.499C48.0391 15.499 46.75 16.9346 46.3398 19.8057H53.8105V19.2344C53.8398 18.0479 53.5396 17.1323 52.9097 16.4878C52.2798 15.8286 51.3789 15.499 50.207 15.499ZM69.3232 34H66.6206V2.00781H69.3232V34ZM79.9141 10.2256L80.002 14.2905C80.8955 12.8257 82.0088 11.7124 83.3418 10.9507C84.6748 10.1743 86.147 9.78613 87.7583 9.78613C90.3071 9.78613 92.2041 10.5039 93.4492 11.9395C94.6943 13.375 95.3242 15.5283 95.3389 18.3994V34H92.7241V18.3774C92.7095 16.2534 92.2554 14.6714 91.3618 13.6313C90.4829 12.5913 89.0693 12.0713 87.1211 12.0713C85.4951 12.0713 84.0522 12.584 82.7925 13.6094C81.5474 14.6201 80.6245 15.9897 80.0239 17.7183V34H77.4092V10.2256H79.9141ZM101.096 21.8931C101.096 18.2017 101.916 15.2646 103.557 13.082C105.212 10.8848 107.453 9.78613 110.28 9.78613C113.488 9.78613 115.935 11.0532 117.619 13.5874V0.25H120.234V34H117.773L117.663 30.8359C115.979 33.2383 113.503 34.4395 110.236 34.4395C107.497 34.4395 105.285 33.3408 103.601 31.1436C101.931 28.9316 101.096 25.9507 101.096 22.2007V21.8931ZM103.754 22.3545C103.754 25.3867 104.362 27.7817 105.578 29.5396C106.794 31.2827 108.508 32.1543 110.72 32.1543C113.957 32.1543 116.257 30.7261 117.619 27.8696V16.7075C116.257 13.6167 113.972 12.0713 110.764 12.0713C108.552 12.0713 106.831 12.9429 105.6 14.686C104.37 16.4146 103.754 18.9707 103.754 22.3545ZM130.1 34H127.463V10.2256H130.1V34ZM127.001 3.34814C127.001 2.8501 127.163 2.43262 127.485 2.0957C127.807 1.74414 128.247 1.56836 128.803 1.56836C129.36 1.56836 129.799 1.74414 130.122 2.0957C130.458 2.43262 130.627 2.8501 130.627 3.34814C130.627 3.84619 130.458 4.26367 130.122 4.60059C129.799 4.9375 129.36 5.10596 128.803 5.10596C128.247 5.10596 127.807 4.9375 127.485 4.60059C127.163 4.26367 127.001 3.84619 127.001 3.34814ZM146.052 32.2202C147.883 32.2202 149.414 31.7075 150.644 30.6821C151.889 29.6421 152.563 28.3018 152.666 26.6611H155.192C155.119 28.1113 154.665 29.437 153.83 30.6382C152.995 31.8247 151.882 32.7549 150.49 33.4287C149.113 34.1025 147.634 34.4395 146.052 34.4395C142.932 34.4395 140.456 33.3555 138.625 31.1875C136.809 29.0195 135.9 26.1045 135.9 22.4424V21.6514C135.9 19.3076 136.311 17.2349 137.131 15.4331C137.951 13.6313 139.123 12.2397 140.646 11.2583C142.185 10.2769 143.979 9.78613 146.03 9.78613C148.637 9.78613 150.783 10.5625 152.468 12.1152C154.167 13.668 155.075 15.7114 155.192 18.2456H152.666C152.548 16.3853 151.875 14.8838 150.644 13.7412C149.428 12.5986 147.89 12.0273 146.03 12.0273C143.657 12.0273 141.811 12.8843 140.493 14.5981C139.189 16.312 138.537 18.7144 138.537 21.8052V22.5742C138.537 25.6064 139.189 27.9722 140.493 29.6714C141.811 31.3706 143.664 32.2202 146.052 32.2202ZM175.473 34C175.209 33.2529 175.041 32.147 174.968 30.6821C174.045 31.8833 172.866 32.8135 171.43 33.4727C170.009 34.1172 168.5 34.4395 166.904 34.4395C164.619 34.4395 162.766 33.8022 161.345 32.5278C159.938 31.2534 159.235 29.6421 159.235 27.6938C159.235 25.3794 160.195 23.5483 162.114 22.2007C164.047 20.853 166.735 20.1792 170.178 20.1792H174.946V17.4766C174.946 15.7773 174.418 14.4443 173.364 13.4775C172.324 12.4961 170.8 12.0054 168.793 12.0054C166.962 12.0054 165.446 12.4741 164.245 13.4116C163.044 14.3491 162.443 15.4771 162.443 16.7954L159.807 16.7734C159.807 14.8838 160.686 13.2505 162.443 11.8735C164.201 10.4819 166.362 9.78613 168.925 9.78613C171.577 9.78613 173.664 10.4526 175.188 11.7856C176.726 13.104 177.517 14.9497 177.561 17.3228V28.5728C177.561 30.8726 177.802 32.5938 178.286 33.7363V34H175.473ZM167.211 32.1104C168.969 32.1104 170.537 31.6855 171.914 30.8359C173.305 29.9863 174.316 28.8511 174.946 27.4302V22.2007H170.244C167.622 22.23 165.571 22.7134 164.091 23.6509C162.612 24.5737 161.872 25.8481 161.872 27.4741C161.872 28.8071 162.363 29.9131 163.344 30.792C164.34 31.6709 165.629 32.1104 167.211 32.1104ZM187.404 25.1011H184.965L184.833 2.00781H187.558L187.404 25.1011ZM184.526 32.4619C184.526 31.9639 184.687 31.5464 185.009 31.2095C185.332 30.8579 185.771 30.6821 186.328 30.6821C186.884 30.6821 187.324 30.8579 187.646 31.2095C187.983 31.5464 188.151 31.9639 188.151 32.4619C188.151 32.9453 187.983 33.3555 187.646 33.6924C187.324 34.0146 186.884 34.1758 186.328 34.1758C185.771 34.1758 185.332 34.0146 185.009 33.6924C184.687 33.3555 184.526 32.9453 184.526 32.4619Z" fill="#B45D87"/>
</svg>
