<svg width="633" height="110" viewBox="0 0 633 110" fill="none" xmlns="http://www.w3.org/2000/svg">
<g clip-path="url(#clip0)">
<path d="M27.654 6.75391L52.7638 77.6422L77.6524 6.75391H104.131V104.506H83.9437V77.7806L85.9625 31.6658L59.5944 104.506H45.7674L19.4961 31.7212L21.501 77.7806V104.506H1.38269V6.75391H27.654Z" stroke="#FEDA84" stroke-width="2" stroke-miterlimit="10"/>
<path d="M33.1848 10.9059L58.2946 81.7942L83.1832 10.9059H109.662V108.658H89.4745V81.9326L91.4933 35.8178L65.1252 108.658H51.2982L25.0269 35.8732L27.0318 81.9326V108.658H6.91351V10.9059H33.1848Z" fill="#FEDA84"/>
<path d="M153.825 105.848C143.197 105.848 134.537 102.577 127.844 96.0355C121.152 89.4938 117.811 80.7885 117.82 69.9195V68.0511C117.698 61.2762 119.141 54.5647 122.037 48.4399C124.64 42.9279 128.804 38.303 134.011 35.1397C139.36 31.9867 145.475 30.3728 151.682 30.4756C161.61 30.4756 169.445 33.608 175.188 39.8729C180.931 46.1378 183.779 55.0231 183.733 66.5287V74.4452H137.468C137.902 78.8162 139.918 82.8774 143.137 85.8631C146.43 88.7794 150.718 90.3157 155.111 90.1535C162.578 90.1535 168.413 87.4455 172.616 82.0295L182.129 92.7277C179.127 96.948 175.056 100.292 170.335 102.416C165.149 104.755 159.513 105.927 153.825 105.848V105.848ZM151.613 46.1563C149.865 46.0948 148.124 46.4131 146.511 47.0893C144.897 47.7654 143.449 48.7833 142.266 50.073C139.628 53.2491 138.022 57.1553 137.662 61.2695H164.624V59.7194C164.541 55.4014 163.38 52.0613 161.14 49.6993C159.887 48.4753 158.392 47.5276 156.752 46.9173C155.111 46.3071 153.36 46.0478 151.613 46.1563V46.1563Z" stroke="#FEDA84" stroke-width="2" stroke-miterlimit="10"/>
<path d="M159.356 110C148.728 110 140.068 106.729 133.375 100.187C126.683 93.6458 123.341 84.9405 123.351 74.0715V72.2031C123.229 65.4282 124.672 58.7167 127.568 52.5919C130.171 47.0799 134.335 42.4549 139.542 39.2917C144.891 36.1387 151.006 34.5247 157.213 34.6276C167.141 34.6276 174.976 37.76 180.719 44.0249C186.462 50.2898 189.31 59.1751 189.264 70.6807V78.5971H142.999C143.433 82.9682 145.449 87.0294 148.668 90.0151C151.961 92.9314 156.248 94.4677 160.642 94.3055C168.109 94.3055 173.944 91.5975 178.147 86.1814L187.66 96.8797C184.658 101.1 180.587 104.444 175.866 106.568C170.68 108.907 165.044 110.079 159.356 110ZM157.144 50.3083C155.396 50.2468 153.655 50.5651 152.041 51.2413C150.428 51.9174 148.98 52.9353 147.797 54.225C145.159 57.4011 143.553 61.3072 143.192 65.4215H170.155V63.8714C170.072 59.5534 168.911 56.2133 166.671 53.8513C165.418 52.6273 163.923 51.6796 162.282 51.0693C160.641 50.4591 158.891 50.1998 157.144 50.3083Z" fill="#FEDA84"/>
<path d="M251.555 104.506H231.436V6.75391H251.555V104.506Z" stroke="#FEDA84" stroke-width="2" stroke-miterlimit="10"/>
<path d="M257.085 108.658H236.967V10.9059H257.085V108.658Z" fill="#FEDA84"/>
<path d="M286.758 31.8319L287.366 40.2189C289.836 37.0733 293.013 34.5561 296.639 32.8725C300.265 31.189 304.237 30.3867 308.231 30.531C315.919 30.531 321.639 32.7915 325.391 37.3125C329.142 41.8336 331.064 48.5875 331.157 57.5742V104.506H311.799V58.0448C311.799 53.8928 310.9 50.9449 309.116 49.0765C307.333 47.2081 304.346 46.3085 300.184 46.3085C297.698 46.1996 295.231 46.7902 293.063 48.0133C290.896 49.2365 289.114 51.0432 287.92 53.2285V104.436H268.562V31.8319H286.758Z" stroke="#FEDA84" stroke-width="2" stroke-miterlimit="10"/>
<path d="M292.289 35.9839L292.897 44.3709C295.367 41.2252 298.544 38.7081 302.17 37.0245C305.796 35.341 309.768 34.5387 313.762 34.683C321.45 34.683 327.17 36.9435 330.922 41.4645C334.673 45.9856 336.595 52.7395 336.688 61.7262V108.658H317.33V62.1968C317.33 58.0448 316.431 55.0969 314.647 53.2285C312.864 51.3601 309.877 50.4605 305.715 50.4605C303.229 50.3516 300.762 50.9422 298.594 52.1653C296.427 53.3885 294.645 55.1951 293.45 57.3805V108.588H274.093V35.9839H292.289Z" fill="#FEDA84"/>
<path d="M342.827 67.6497C342.827 56.3102 345.366 47.2912 350.445 40.5926C352.832 37.3403 355.977 34.7218 359.606 32.9655C363.236 31.2093 367.24 30.3687 371.269 30.5171C374.594 30.4426 377.893 31.1165 380.922 32.4891C383.952 33.8617 386.635 35.8979 388.774 38.4474V1.384H408.228V104.506H390.723L389.783 96.7828C387.609 99.6595 384.785 101.98 381.544 103.556C378.302 105.131 374.733 105.917 371.13 105.848C367.144 105.954 363.192 105.09 359.614 103.33C356.035 101.57 352.936 98.9673 350.583 95.7449C345.412 89.0094 342.827 79.6444 342.827 67.6497ZM362.184 69.0337C362.184 75.843 363.369 81.0653 365.738 84.7006C366.821 86.4543 368.352 87.8876 370.172 88.8533C371.992 89.8189 374.036 90.282 376.094 90.195C382.095 90.195 386.322 87.6623 388.774 82.5969V53.8928C386.359 48.8274 382.178 46.2947 376.233 46.2947C366.922 46.2947 362.267 53.8928 362.267 69.0891L362.184 69.0337Z" stroke="#FEDA84" stroke-width="2" stroke-miterlimit="10"/>
<path d="M348.357 71.8017C348.357 60.4622 350.897 51.4431 355.976 44.7446C358.362 41.4922 361.508 38.8737 365.137 37.1175C368.767 35.3613 372.771 34.5207 376.8 34.6691C380.124 34.5946 383.424 35.2685 386.453 36.6411C389.483 38.0136 392.166 40.0499 394.305 42.5994V5.536H413.759V108.658H396.254L395.314 100.935C393.14 103.811 390.316 106.132 387.074 107.708C383.833 109.283 380.264 110.069 376.661 110C372.675 110.106 368.723 109.242 365.144 107.482C361.566 105.722 358.467 103.119 356.114 99.8968C350.943 93.1614 348.357 83.7963 348.357 71.8017ZM367.715 73.1857C367.715 79.995 368.9 85.2172 371.269 88.8525C372.352 90.6063 373.883 92.0396 375.703 93.0053C377.523 93.9709 379.567 94.434 381.625 94.347C387.626 94.347 391.853 91.8143 394.305 86.7489V58.0448C391.889 52.9794 387.709 50.4467 381.763 50.4467C372.453 50.4467 367.798 58.0448 367.798 73.2411L367.715 73.1857Z" fill="#FEDA84"/>
<path d="M423.106 13.0649C423.064 11.73 423.301 10.401 423.804 9.16373C424.306 7.92648 425.063 6.80849 426.024 5.88199C428.264 4.05548 431.064 3.05811 433.953 3.05811C436.843 3.05811 439.643 4.05548 441.883 5.88199C442.851 6.805 443.613 7.92171 444.12 9.15934C444.628 10.397 444.869 11.7277 444.828 13.0649C444.873 14.4166 444.63 15.7623 444.115 17.0126C443.6 18.263 442.825 19.3894 441.842 20.3171C439.618 22.1385 436.834 23.1336 433.96 23.1336C431.087 23.1336 428.302 22.1385 426.079 20.3171C425.1 19.3865 424.33 18.2593 423.817 17.0094C423.305 15.7595 423.063 14.4152 423.106 13.0649V13.0649ZM443.708 104.506H424.254V31.8319H443.708V104.506Z" stroke="#FEDA84" stroke-width="2" stroke-miterlimit="10"/>
<path d="M428.637 17.2169C428.594 15.882 428.832 14.553 429.335 13.3157C429.837 12.0785 430.593 10.9605 431.554 10.034C433.794 8.20747 436.595 7.2101 439.484 7.2101C442.373 7.2101 445.174 8.20747 447.414 10.034C448.381 10.957 449.144 12.0737 449.651 13.3113C450.159 14.549 450.4 15.8797 450.359 17.2169C450.404 18.5686 450.16 19.9143 449.645 21.1646C449.13 22.415 448.356 23.5414 447.372 24.4691C445.149 26.2905 442.364 27.2856 439.491 27.2856C436.618 27.2856 433.833 26.2905 431.61 24.4691C430.631 23.5385 429.86 22.4113 429.348 21.1614C428.836 19.9115 428.593 18.5672 428.637 17.2169ZM449.239 108.658H429.785V35.9839H449.239V108.658Z" fill="#FEDA84"/>
<path d="M489.849 90.195C493.03 90.3193 496.142 89.248 498.574 87.1917C499.681 86.2062 500.565 84.9947 501.166 83.6388C501.767 82.2829 502.072 80.8139 502.058 79.3306H520.227C520.218 84.1365 518.821 88.8372 516.203 92.8661C513.54 96.985 509.794 100.289 505.377 102.416C500.637 104.709 495.431 105.87 490.167 105.806C479.797 105.806 471.616 102.503 465.624 95.8971C459.632 89.2908 456.637 80.1703 456.637 68.5355V67.2622C456.637 56.0795 459.609 47.1527 465.555 40.4819C471.501 33.811 479.663 30.4756 490.043 30.4756C499.113 30.4756 506.386 33.059 511.862 38.226C517.337 43.3929 520.103 50.276 520.158 58.8752H502.058C502.106 55.4717 500.861 52.177 498.574 49.6578C497.266 48.4208 495.715 47.4698 494.02 46.8652C492.326 46.2605 490.524 46.0155 488.729 46.1457C486.934 46.2758 485.186 46.7783 483.596 47.6212C482.006 48.4642 480.609 49.629 479.493 51.0418C477.188 54.3357 476.036 59.6825 476.036 67.0823V69.1998C476.036 76.6918 477.174 82.0709 479.451 85.3372C481.728 88.6034 485.194 90.2227 489.849 90.195Z" stroke="#FEDA84" stroke-width="2" stroke-miterlimit="10"/>
<path d="M495.38 94.347C498.561 94.4713 501.673 93.4 504.105 91.3437C505.212 90.3582 506.096 89.1467 506.697 87.7908C507.298 86.4349 507.602 84.9659 507.589 83.4826H525.758C525.749 88.2885 524.352 92.9892 521.734 97.0181C519.071 101.137 515.325 104.441 510.908 106.568C506.168 108.861 500.962 110.022 495.698 109.958C485.328 109.958 477.147 106.655 471.155 100.049C465.163 93.4428 462.167 84.3223 462.167 72.6875V71.4142C462.167 60.2315 465.14 51.3047 471.086 44.6339C477.032 37.963 485.194 34.6276 495.574 34.6276C504.644 34.6276 511.917 37.211 517.392 42.378C522.868 47.5449 525.633 54.4279 525.689 63.0272H507.589C507.637 59.6237 506.392 56.329 504.105 53.8098C502.797 52.5728 501.246 51.6218 499.551 51.0172C497.856 50.4125 496.054 50.1675 494.26 50.2977C492.465 50.4278 490.717 50.9303 489.127 51.7732C487.537 52.6161 486.14 53.781 485.023 55.1938C482.719 58.4877 481.567 63.8345 481.567 71.2343V73.3518C481.567 80.8438 482.705 86.2229 484.982 89.4892C487.259 92.7554 490.725 94.3747 495.38 94.347Z" fill="#FEDA84"/>
<path d="M573.35 104.506C572.359 102.45 571.7 100.25 571.401 97.9869C569.109 100.561 566.28 102.599 563.114 103.958C559.948 105.316 556.523 105.961 553.08 105.848C546.626 106.071 540.323 103.858 535.423 99.6477C533.169 97.7391 531.371 95.3505 530.158 92.6567C528.945 89.9629 528.349 87.0318 528.413 84.0778C528.413 76.3827 531.266 70.4731 536.972 66.3488C542.677 62.2245 550.914 60.1439 561.68 60.1069H570.599V55.955C570.749 53.0398 569.829 50.1704 568.013 47.8863C566.299 45.8795 563.575 44.8691 559.869 44.8691C557.112 44.7096 554.39 45.5443 552.195 47.2219C551.271 48.0132 550.542 49.0062 550.062 50.1244C549.583 51.2426 549.366 52.4562 549.43 53.6714H530.072C530.064 49.4585 531.428 45.3577 533.957 41.9904C536.781 38.2258 540.583 35.3102 544.95 33.5619C550.009 31.4614 555.444 30.4204 560.92 30.5033C569.852 30.5033 576.95 32.7546 582.213 37.2572C587.477 41.7598 590.104 48.08 590.095 56.2179V87.7177C590.095 94.61 591.054 99.823 592.971 103.357V104.506H573.35ZM557.325 91.0116C560.079 91.0323 562.796 90.3715 565.234 89.0878C567.5 87.9588 569.371 86.1685 570.599 83.9532V71.4972H563.353C553.665 71.4972 548.503 74.8557 547.867 81.5727L547.798 82.7076C547.765 83.8224 547.973 84.9312 548.407 85.9582C548.841 86.9853 549.492 87.9065 550.315 88.6588C552.262 90.3173 554.773 91.16 557.325 91.0116V91.0116Z" stroke="#FEDA84" stroke-width="2" stroke-miterlimit="10"/>
<path d="M578.881 108.658C577.889 106.602 577.231 104.402 576.932 102.139C574.64 104.713 571.811 106.751 568.645 108.11C565.479 109.468 562.053 110.113 558.611 110C552.156 110.223 545.854 108.01 540.954 103.8C538.7 101.891 536.901 99.5025 535.688 96.8087C534.476 94.1149 533.879 91.1838 533.943 88.2298C533.943 80.5347 536.796 74.6251 542.502 70.5008C548.208 66.3765 556.445 64.2958 567.211 64.2589H576.13V60.107C576.279 57.1918 575.36 54.3224 573.544 52.0382C571.829 50.0315 569.105 49.0211 565.4 49.0211C562.643 48.8616 559.92 49.6963 557.726 51.3739C556.802 52.1651 556.072 53.1582 555.593 54.2764C555.113 55.3946 554.897 56.6081 554.96 57.8234H535.603C535.595 53.6105 536.959 49.5097 539.488 46.1424C542.311 42.3778 546.114 39.4622 550.48 37.7139C555.539 35.6134 560.974 34.5724 566.451 34.6553C575.383 34.6553 582.481 36.9066 587.744 41.4092C593.008 45.9118 595.635 52.232 595.626 60.3699V91.8697C595.626 98.762 596.584 103.975 598.502 107.509V108.658H578.881ZM562.856 95.1636C565.61 95.1843 568.327 94.5235 570.765 93.2398C573.031 92.1108 574.901 90.3204 576.13 88.1052V75.6492H568.884C559.196 75.6492 554.034 79.0077 553.398 85.7247L553.329 86.8596C553.296 87.9744 553.504 89.0832 553.938 90.1102C554.372 91.1373 555.023 92.0585 555.845 92.8108C557.792 94.4693 560.303 95.312 562.856 95.1636Z" fill="#FEDA84"/>
<path d="M616.684 85.1019C618.123 85.0351 619.561 85.2551 620.914 85.7493C622.267 86.2435 623.508 87.002 624.566 87.9806C626.474 89.9529 627.541 92.5909 627.541 95.3366C627.541 98.0822 626.474 100.72 624.566 102.692C622.369 104.55 619.587 105.569 616.712 105.569C613.836 105.569 611.054 104.55 608.858 102.692C606.952 100.727 605.886 98.0961 605.886 95.3573C605.886 92.6186 606.952 89.9875 608.858 88.0221C609.901 87.0358 611.131 86.269 612.475 85.7674C613.819 85.2658 615.251 85.0395 616.684 85.1019V85.1019ZM624.731 74.4867H608.568L606.286 6.75391H626.944L624.731 74.4867Z" stroke="#FEDA84" stroke-width="2" stroke-miterlimit="10"/>
<path d="M622.215 89.2539C623.654 89.1871 625.091 89.4072 626.444 89.9013C627.797 90.3955 629.039 91.154 630.096 92.1326C632.005 94.1049 633.072 96.7429 633.072 99.4886C633.072 102.234 632.005 104.872 630.096 106.844C627.9 108.702 625.118 109.721 622.243 109.721C619.367 109.721 616.585 108.702 614.389 106.844C612.483 104.879 611.417 102.248 611.417 99.5093C611.417 96.7706 612.483 94.1395 614.389 92.1741C615.432 91.1878 616.662 90.421 618.006 89.9194C619.35 89.4178 620.782 89.1915 622.215 89.2539ZM630.262 78.6387H614.099L611.817 10.9059H632.475L630.262 78.6387Z" fill="#FEDA84"/>
</g>
<defs>
<clipPath id="clip0">
<rect width="633" height="110" fill="white"/>
</clipPath>
</defs>
</svg>
